<?xml version="1.0" encoding="utf-8"?>
<!-- Generator: Adobe Illustrator 24.1.2, SVG Export Plug-In . SVG Version: 6.00 Build 0)  -->
<svg version="1.1" id="Layer_1" xmlns="http://www.w3.org/2000/svg" xmlns:xlink="http://www.w3.org/1999/xlink" x="0px" y="0px"
	 viewBox="0 0 711 798" style="enable-background:new 0 0 711 798;" xml:space="preserve">
<style type="text/css">
	.st0{display:none;}
	.st1{fill:#F6F6F2;}
	.st2{fill:#6EABC1;}
	.st3{fill:#2E6274;}
	.st4{fill:#8CCAAF;}
	.st5{fill:#264A54;}
	.st6{clip-path:url(#SVGID_3_);}
	.st7{fill:#264A54;stroke:#8ECCB1;stroke-width:2;}
	.st8{fill:none;stroke:#8ECCB1;stroke-width:2;stroke-miterlimit:10;}
	.st9{fill:none;stroke:#8ECCB1;stroke-width:2;}
	.st10{fill:#264A54;stroke:#8ECCB1;stroke-width:2;stroke-miterlimit:10;}
	.st11{fill:#264A54;stroke:#8ECCB1;stroke-width:0.75;stroke-miterlimit:10;}
	.st12{fill:none;stroke:#8ECCB1;stroke-width:0.75;stroke-miterlimit:10;}
	.st13{fill:#264A54;stroke:#8ECCB1;stroke-miterlimit:10;}
	.st14{fill:none;stroke:#8ECCB1;stroke-miterlimit:10;}
	.st15{fill:#264A54;stroke:#8ECCB1;stroke-width:1;stroke-miterlimit:9.9999;}
	.st16{fill:#264A54;stroke:#8ECCB1;stroke-width:1;stroke-miterlimit:10.0003;}
	.st17{fill:#264A54;stroke:#8ECCB1;stroke-width:1;stroke-miterlimit:10.0001;}
	.st18{fill:#264A54;stroke:#8ECCB1;stroke-width:1;stroke-miterlimit:10;}
	.st19{fill:#264A54;stroke:#8ECCB1;stroke-width:1;stroke-miterlimit:9.9997;}
	.st20{fill:#264A54;stroke:#8ECCB1;stroke-width:1;stroke-miterlimit:9.9998;}
	.st21{fill:#264A54;stroke:#8ECCB1;stroke-width:1;stroke-miterlimit:9.9996;}
</style>
<g id="Layer_1_1_" class="st0">
	<image style="display:inline;overflow:visible;enable-background:new    ;" width="713" height="801" xlink:href="EA9AC4E3.jpeg" >
	</image>
</g>
<g id="Layer_3">
</g>
<g id="Layer_2_1_">
	<ellipse class="st1" cx="356.5" cy="707" rx="319.5" ry="91"/>
	<circle class="st2" cx="114" cy="471" r="35"/>
	<circle class="st3" cx="559.5" cy="598.5" r="54.5"/>
	<circle class="st3" cx="641.5" cy="544.5" r="18.5"/>
	<circle class="st4" cx="172.5" cy="574.5" r="48.5"/>
	<circle class="st4" cx="596" cy="542" r="43"/>
	<circle class="st4" cx="428.5" cy="690.5" r="57.5"/>
	<circle class="st3" cx="138.5" cy="520.5" r="12.5"/>
	<circle class="st3" cx="232.5" cy="655.5" r="44.5"/>
	<circle class="st2" cx="509.5" cy="615.5" r="40.5"/>
	<g>
		<g>
			<path id="SVGID_1_" class="st5" d="M640,285.8c0-2.5,0-4.9,0-7.4h-0.1C635.5,124.9,507.9,0,353.5,0C199.2,0,71.7,124.7,67.1,278
				H67c-4,255.6,232.6,424.6,285.9,467.1c0.2-0.8,0.4-1.6,0.5-2.5c0.1,1,0.3,2,0.6,2.9c52.2-41.6,279.9-204.4,285.9-450.8
				c0-1,0-1.9,0.1-2.9c0-1.1,0-2.2,0-3.3c0-0.7,0-1.4,0-2C640,286.3,640,286,640,285.8z M353,397c-66.8,0-121-54.2-121-121
				s54.2-121,121-121s121,54.2,121,121S419.8,397,353,397z"/>
		</g>
		<g>
			<defs>
				<path id="SVGID_2_" d="M640,285.8c0-2.5,0-4.9,0-7.4h-0.1C635.5,124.9,507.9,0,353.5,0C199.2,0,71.7,124.7,67.1,278H67
					c-4,255.6,232.6,424.6,285.9,467.1c0.2-0.8,0.4-1.6,0.5-2.5c0.1,1,0.3,2,0.6,2.9c52.2-41.6,279.9-204.4,285.9-450.8
					c0-1,0-1.9,0.1-2.9c0-1.1,0-2.2,0-3.3c0-0.7,0-1.4,0-2C640,286.3,640,286,640,285.8z M353,397c-66.8,0-121-54.2-121-121
					s54.2-121,121-121s121,54.2,121,121S419.8,397,353,397z"/>
			</defs>
			<clipPath id="SVGID_3_">
				<use xlink:href="#SVGID_2_"  style="overflow:visible;"/>
			</clipPath>
			<g class="st6">
				<path class="st7" d="M53.5,351.2c2.1-0.3,123.6,12.8,182.6,19.1c0.3,0,0.5,0.2,0.6,0.5c0.8,4.4,0.5,37.5,0.3,37.6
					c-1.4,0.5-4.8-0.2-5.7,0.3c-1.2,0.5,0.1,20.3,0.6,21c0.7,1,5.1-0.1,5.1,1c0,3.6,0.4,14.6,0.1,21.4c0,0.1,0.1,0.4,0,0.5
					c-0.5,0.7-6.6,0.1-7.4,0c-0.7-0.1-0.3-2.8-0.7-4.8c-0.1-0.3,0.1-0.4-0.8-0.5c-4.8-0.5-23.4-0.5-27.1-0.5c-0.4,0-1.6,0-1.9,0.3
					c-1.3,0.9-0.3,19-0.2,23.3c0,0.2,0.2,0.5,0.7,0.5c3.9-0.2,21.5,0.1,28.4,0.5c1.3,0.1,4.1,0.3,6.2,0.4c1.1,0,2.2,0,2.6,1
					c0.9,2.5,0.4,8,0.3,11.6c0,0.5-0.2,0.9-0.5,1.2c-2.8,2.7-72.7,72.8-76,75.8c-0.3,0.3-0.8,0.5-1.6,0.6c-4.2,0.4-15,0-17.9,0.1
					c-0.1,0-0.2,0-0.2,0c-0.7-0.9,0.3-5.1-1.2-6.1c-1.2-0.9-3.4-0.7-4.1-1.3c-1.8-1.6-1.1,1.8-3.9,1.9c-0.4,0,0.3,5.6-0.1,5.5
					c-3.4-0.5-65.2,0-67.6-0.5c-0.3-0.1-0.3-2.2-0.4-4.7c0-0.3-4.8-0.1-4.9-0.1c-0.3,1.2,0,4.9-0.4,5c-0.4,0.1-2.9,0.1-4.1,0
					c-0.4,0-0.7-0.3-0.7-0.7l-0.4-4.1c-0.2-0.4-1.8-0.4-2.1-0.1c-1.9,1.7-5.2,5.2-5.3,4.8c-0.3-2.5-0.1-29.5-0.3-29.5
					c-1.2-0.1-5.7-0.1-5.9-0.3c-0.1-0.2-0.4-18,0.6-19c0.6-0.5,5.5,0.3,5.5-0.7c0-1.1,0.3-3-0.3-3c-2.6-0.2-4.2,0-5-0.4
					c-0.2-0.1-0.3-7.8,0-7.9c1.6-0.5,4.7-0.2,5.2-1.5c0.5-1.3-0.4-140.7,0.1-141.8c1.2-2.2,4.4-2.7,6.9-4.1
					C53.5,352.8,52.6,351.4,53.5,351.2z"/>
				<path class="st7" d="M649.4,351.2c-2.1-0.3-123.6,12.8-182.6,19.1c-0.3,0-0.5,0.2-0.5,0.5c-0.8,4.4-0.5,37.5-0.3,37.6
					c1.4,0.5,4.8-0.2,5.7,0.3c1.2,0.5-0.1,20.3-0.6,21c-0.7,1-5.1-0.1-5,1c0,3.6-0.4,14.6-0.1,21.4c0,0.1-0.1,0.4,0,0.5
					c0.5,0.7,6.6,0.1,7.4,0c0.7-0.1,0.3-2.8,0.7-4.8c0-0.3-0.1-0.4,0.8-0.5c4.8-0.5,23.4-0.5,27.1-0.5c0.4,0,1.6,0,1.9,0.3
					c1.3,0.9,0.3,19,0.2,23.3c0,0.2-0.2,0.5-0.7,0.5c-3.9-0.2-21.5,0.1-28.5,0.5c-1.3,0.1-4.1,0.3-6.2,0.4c-1,0-2.2,0-2.6,1
					c-0.9,2.5-0.4,8-0.3,11.6c0,0.5,0.2,0.9,0.5,1.2c2.8,2.7,72.7,72.8,76,75.8c0.3,0.3,0.8,0.5,1.6,0.6c4.2,0.4,15,0,17.9,0.1
					c0,0,0.2,0,0.2,0c0.7-0.9-0.3-5.1,1.2-6.1c1.2-0.9,3.4-0.7,4.1-1.3c1.8-1.6,1.1,1.8,4,1.9c0.4,0-0.3,5.6,0.1,5.5
					c3.5-0.5,65.2,0,67.6-0.5c0.3-0.1,0.3-2.2,0.4-4.7c0-0.3,4.8-0.1,4.9-0.1c0.3,1.2,0,4.9,0.4,5c0.4,0.1,2.9,0.1,4.1,0
					c0.4,0,0.7-0.3,0.7-0.7l0.4-4.1c0.2-0.4,1.8-0.4,2.1-0.1c1.9,1.7,5.2,5.2,5.3,4.8c0.3-2.5,0.1-29.5,0.3-29.5
					c1.2-0.1,5.7-0.1,5.9-0.3c0.1-0.2,0.4-18-0.6-19c-0.6-0.5-5.5,0.3-5.5-0.7c0-1.1-0.3-3,0.3-3c2.6-0.2,4.2,0,5-0.4
					c0.2-0.1,0.3-7.8,0-7.9c-1.6-0.5-4.7-0.2-5.2-1.5c-0.5-1.3,0.4-140.7-0.1-141.8c-1.2-2.2-4.4-2.7-6.9-4.1
					C649.4,352.8,650.3,351.4,649.4,351.2z"/>
				<g>
					<line class="st8" x1="352" y1="331" x2="352" y2="368.8"/>
					<g>
						<line class="st9" x1="464.7" y1="235.6" x2="502.9" y2="235.6"/>
						<path class="st7" d="M464.7,235.6c0,0-14.1,91.6-112.6,95.3c-98.5-3.7-112.6-95.3-112.6-95.3h-38.6
							c9.5,75.1,73.5,133.1,151.2,133.1s141.7-58.1,151.2-133.1L464.7,235.6L464.7,235.6z"/>
						<line class="st8" x1="271.9" y1="298" x2="245.4" y2="325.3"/>
						<line class="st8" x1="432.2" y1="298" x2="458.6" y2="325.3"/>
						<path class="st7" d="M503.1,209.4c-0.6-15.8-3.7-31.4-9.1-46.2c-5.3-14.3-12.7-27.8-22-39.9c-9.2-12-20.2-22.6-32.6-31.4
							c-12.5-8.8-26.3-15.8-40.9-20.5c-7.4-2.4-15.1-4.2-22.8-5.4c-3.9-0.6-7.9-1.1-11.9-1.4c-2-0.2-4-0.3-6-0.3c-0.2,0-5.1,0-5.9,0
							c-0.8,0-5.6,0-5.9,0c-2,0.1-4,0.2-6,0.3c-4,0.3-7.9,0.8-11.9,1.4c-7.7,1.2-15.4,3-22.8,5.4c-14.6,4.7-28.4,11.7-40.9,20.5
							c-12.4,8.8-23.4,19.4-32.6,31.4c-9.3,12.1-16.8,25.6-22,39.9c-5.4,14.8-8.5,30.4-9.1,46.2c-0.1,1.4-0.9,7.4,0.1,8.2
							c0.2,0.2,1.5,0,1.9,0c1.4,0,2.9,0,4.3,0c4.6,0,9.2,0,13.8-0.1c11.9-0.1,23.8-0.1,35.7-0.1c7.7,0,15.5,0,23.2-0.1
							c0.1,0,0.3,0,0.3-0.1c0.1-0.1,0.1-0.2,0.1-0.3c0-3.2,0-6.4,0-9.6c0-0.4-3.3-0.1-3.3-1.2c0.2-6.8,0.2-13.6,0.2-20.4
							c0-1.9,0-3.8,0-5.7c0-0.7-0.6-1.3-1.3-1.3c-0.4,0-0.8,0-1.2,0c-4.6,0-15.2,0-15.9-0.3c-0.7-0.3,0-1.6-0.6-2
							c-1-0.6-6.6,0.7-7.1-1.3c-0.7-3-0.9-6-0.5-10.1c0.1-1,0.9-2.4,1.4-3.3c4.9-8.1,11-15.3,19.1-25c1.2-1.4,6.1-0.3,6.2-1.1
							c0.3-5,0-26.1,0.2-32.3c0-0.8,0.7-1.3,1.4-1.3c4.5,0.1,19.6,0.2,24,0c0.5,0,0.9,0.4,1,0.9c0.1,1.5,0.2,4.3,0.5,4.8
							c1,1.7,8.1,1.6,10.8,1.1c4.1-0.8,14.5-4.8,36.7-6c22.1,1.2,32.6,5.2,36.7,6c2.7,0.6,9.8,0.6,10.8-1.1c0.3-0.5,0.4-3.4,0.5-4.8
							c0-0.5,0.5-0.9,1-0.9c4.3,0.2,19.5,0.1,24,0c0.8,0,1.4,0.6,1.4,1.3c0.3,6.1,0,27.3,0.2,32.3c0,0.9,4.9-0.4,6.2,1.1
							c8.1,9.7,14.2,16.9,19.1,25c0.5,0.9,1.3,2.4,1.4,3.3c0.4,4.1,0.2,7-0.5,10.1c-0.4,2-6.1,0.7-7.1,1.3c-0.7,0.4,0.1,1.7-0.6,2
							c-0.6,0.3-11.2,0.3-15.9,0.3c-0.4,0-0.8,0-1.2,0c-0.7,0-1.3,0.6-1.3,1.3c0,1.9,0,3.8,0,5.7c0,6.8-0.1,13.6,0.2,20.4
							c0,1.1-3.3,0.8-3.3,1.2c0,3.2,0,6.4,0,9.6c0,0.1,0,0.2,0.1,0.3c0.1,0.1,0.2,0.1,0.3,0.1c7.7,0.1,15.5,0.1,23.2,0.1
							c11.9,0.1,23.8,0.1,35.7,0.1c4.6,0,9.2,0,13.8,0.1c1.4,0,2.9,0,4.3,0c0.3,0,1.6,0.2,1.9,0C504,216.8,503.2,210.8,503.1,209.4z
							"/>
						<path class="st7" d="M295.8,358.1v10.3c0,1.1-0.9,1.9-1.9,1.9c0,0-25.3,0.2-25.5-0.1c-0.7-1.3-0.2-5.2-0.7-5.6
							c-6-4.6-17-11.7-27.5-11.7c-1.4,0-1.1-1.1-1.1-2.5v-15.7c0-1.6-1.3-2.9-2.9-2.9l-32.8,0c-1.4,0-2.5-1.1-2.5-2.5v-32.7
							c0-1.5,1.1-2.7,2.6-2.8l5.1-0.4c0.4,0,0.6-0.3,0.6-0.7c0.2-9.2-0.4-18-3-26c-0.4-1.2-1.5-2.1-2.8-2.1l0,0
							c-1.4,0-2.4-1.1-2.4-2.5v-26.5"/>
						<path class="st7" d="M503.5,234.8v26.5c0,1.4-1.1,2.5-2.5,2.5l0,0c-1.3,0-2.4,0.8-2.8,2.1c-2.6,8-3.2,16.8-3,26
							c0,0.4,0.2,0.7,0.6,0.7l5.1,0.4c1.5,0.1,2.6,1.3,2.6,2.8v32.7c0,1.4-1.1,2.5-2.5,2.5l-32.9,0c-1.6,0-2.9,1.3-2.9,2.9v15.7
							c0,1.4,0.3,2.5-1.1,2.5c-10.5,0-21.5,7.1-27.5,11.7c-0.5,0.4,0,4.4-0.7,5.6c-0.2,0.3-25.5,0.1-25.5,0.1
							c-1.1,0-1.9-0.9-1.9-1.9v-10.3"/>
					</g>
				</g>
				<g>
					<path class="st10" d="M313.6,365.1c0,3.2,0,6.5,0,9.7c0,2.5,0,5,0,7.5c0,2.8-0.4,5.5,1.1,8c3.3,5.5,6.5,11.1,9.7,16.7
						c0.5,0.9,1.6,1.5,2.7,1.5c8.3,0,16.6,0,24.9,0"/>
					<path class="st10" d="M390.5,365.1c0,3.2,0,6.5,0,9.7c0,2.5,0,5,0,7.5c0,2.8,0.4,5.5-1.1,8c-3.3,5.5-6.5,11.1-9.7,16.7
						c-0.5,0.9-1.6,1.5-2.7,1.5c-8.3,0-16.6,0-24.9,0"/>
				</g>
				<path class="st10" d="M352,10.5h-18.4c-0.8,0-1.6,0.3-2.2,0.8l-17.6,14.2h-36.8c-0.8,0-1.4,0.6-1.4,1.4v35.6
					c0,1.1-0.5,2.2-1.3,3l-36.5,35.7c-0.6,0.6-1,1.5-1,2.4v13.8"/>
				<path class="st10" d="M351.9,10.5h18.4c0.8,0,1.6,0.3,2.2,0.8l17.6,14.2h36.8c0.8,0,1.4,0.6,1.4,1.4v35.6c0,1.1,0.5,2.2,1.3,3
					l36.5,35.7c0.6,0.6,1,1.5,1,2.4v13.8"/>
				<g>
					<path class="st10" d="M581.8,142.6v73.1c0,0.4,0.2,0.9,0.5,1.2l37.1,37.9c0.3,0.3,0.7,0.4,1.1,0.4h37c0.4,0,0.8-0.4,0.8-0.8
						v-15.6c0-0.4,0.3-0.8,0.8-0.9l25.2-1.4c0.5,0,0.8,0.3,0.9,0.8l0.8,17c0,0.5,0.4,0.8,0.9,0.8h8.8c0.6,0,1-0.5,1-1l0.3-20.2
						c0-0.3,0.2-0.5,0.5-0.5l8.2-0.2c0.2,0,0.4,0,0.6-0.1l3.2-1c0.3-0.1,0.7-0.1,1,0l9.6,2.1c0.3,0.1,0.5,0.2,0.7,0.4l2.1,1.7
						c0.4,0.3,0.9,0.3,1.3-0.1l0.5-0.6c0.2-0.2,0.4-0.3,0.6-0.3l8.8,0c0.5,0,0.8-0.4,0.8-0.9v-16.1c0-0.8,0.3-1.5,0.8-2.1l36.3-36.6
						c0.7-0.7,1-1.6,1-2.5V141c0-0.5-0.4-0.9-0.9-0.9l-75.6-0.1l-37-36.5c-0.7-0.7-1.6-1.1-2.6-1.1h-35.2c-0.8,0-1.5,0.3-2.1,0.9
						l-36.6,36.4C582.2,140.5,581.8,141.5,581.8,142.6z"/>
					<path class="st10" d="M464.7,56c0-3.2,0-6.5,0-9.7c0-5.8,0-11.7,0-17.5v-1.1c0-0.8,0.6-1.4,1.4-1.4h151.1c1,0,2,0.4,2.7,1.1
						l74.6,74.2c0.6,0.6,1.3,0.9,2.2,0.9h73c0.9,0,1.7,0.3,2.3,0.9l39.3,38.3V216c0,0.7-0.6,1.3-1.3,1.3l-35.3-0.4
						c-0.9,0-1.6,0.7-1.6,1.6V253c0,1.3,1,2.3,2.3,2.3h34.7c0.7,0,1.3,0.6,1.3,1.2v35.8c0,0.8-0.6,1.4-1.3,1.4h-11.5
						c-0.1,0-0.2,0.1-0.2,0.2c0.2,15.5-0.5,21.3,12,20.1c0.7-0.1,1.3,0.5,1.2,1.2c-0.1,1.6,0.2,11.6,0.2,15.7c0,0.6,0.5,1,1,1
						l13.1-0.2c0.8,0,1.4,0.6,1.4,1.4v14.8c0,0.8,0.5,1.8,1.1,2.2c2.9,1.9,4.7,1.4,7.3,4.5c0.1,0.1,0.5,5.1,0.6,5.3
						c0,0.2-4.1,2.3-4.2,2.5c-1.4,3,0.7,4.5-0.2,7.3c-0.1,0.5-0.5,0.8-1,0.8h-17.4c-0.7,0-1.3,0.6-1.4,1.3l-0.2,20.4
						c0,0.5,0.4,0.8,0.8,0.8c3.2,0,9.9,0.3,10,0.4c4.6,5.2,5.3,18.2,1.7,28c-0.3,0.9-1.1,1.5-2,1.5l-9,0.1c-1.1,0-2,0.9-2,2
						l0.2,20.6c0,1.1-0.4,2.2-1.2,3l-36.5,35.8c-0.7,0.6-1.6,1-2.5,1h-35c-0.9,0-1.7-0.4-2.4-1l-36.4-36c-0.7-0.6-1-1.5-1-2.5
						l0.2-113.3c0-0.7,0.6-1.3,1.3-1.3h10c0.5,0,1-0.4,1-1l0.5-8c0.1-2.5-2.8-3.8-5.7-4h-6c-0.7,0-1.3-0.6-1.3-1.3l-0.2-8.8
						c0-0.7,0.8-0.8,1.5-0.8l6.4,0c0.6,0,1.5-0.4,1.6-1c0.1-1-0.4-1.7-1.8-2c-2.3,0-4.6,0-7,0c-0.3,0-0.5-0.2-0.5-0.5l-0.2-9.5
						c0-0.3-0.3-0.6-0.6-0.6l-36.7-0.2c-0.3,0-0.5-0.2-0.5-0.5l-0.2-9.9c0-0.3-0.3-0.6-0.6-0.6c0,0-22.2,0-22.2,0
						c-2,0.2-3,2.8-3.1,5.6l-0.1,4.8c0,0.4-0.3,0.6-0.7,0.7l-11,0.2c-0.4,0-0.7-0.3-0.7-0.7l-0.2-10.7c0-0.4-0.4-0.8-0.8-0.8
						l-16.2-0.4c-0.7,0-1.3,0.6-1.3,1.3l-0.2,10.4c0,0.4-0.4,0.8-0.8,0.8l-18.6,0.2c-0.1,0-0.1,0-0.1-0.1v-11.3
						c0-0.5-0.4-0.9-0.9-0.9c-2.1-0.1-4.3-0.1-6.3-0.2c-0.5,0-1,0.3-1.4,0.7c-1.3,1.8-1.8,4.2-1.6,7.4v3.5c0,0.2-0.2,0.4-0.4,0.4
						H544c-0.3,0-0.6-0.3-0.6-0.6l-0.2-7.3c0-0.4-0.3-0.7-0.6-0.8c-1.1-0.2-6.6-0.1-6.7-0.3c-0.5-0.8-0.6-1.7-0.1-2.6
						c0.2-0.5,0.7-0.7,1.3-0.8l5.8-0.2c0.3-0.1,0.6-0.4,0.6-0.8l0.2-23.8c0-0.3,0.3-0.6,0.6-0.6h7.6c0.4,0,1.3-0.9,1.5-1.3
						c1-2.5,0.3-22.3-0.2-22.6c-1-0.4-9.8-0.1-9.8-0.6l0.2-65.9c0-0.7-0.5-1.3-1.2-1.4l-6.3-0.4c-1.2-0.1-1.8-0.9-2.7-1.7
						c-1.2-1.1-2-2-2.3-3.3c-5.3-26.9-37.3-74.1-66.1-93.2C464.7,65.6,464.7,56.3,464.7,56z"/>
				</g>
				<g>
					<path class="st10" d="M122.3,142.6v73.1c0,0.4-0.2,0.9-0.5,1.2l-37.1,37.9c-0.3,0.3-0.7,0.4-1.1,0.4h-37
						c-0.4,0-0.8-0.4-0.8-0.8v-15.6c0-0.4-0.3-0.8-0.8-0.9l-25.1-1.4c-0.5,0-0.9,0.3-0.9,0.8l-0.8,17c0,0.5-0.4,0.8-0.9,0.8H8.6
						c-0.6,0-1-0.5-1-1L7.3,234c0-0.3-0.2-0.5-0.5-0.5l-8.2-0.2c-0.2,0-0.4,0-0.6-0.1l-3.2-1c-0.3-0.1-0.7-0.1-1,0l-9.6,2.1
						c-0.3,0.1-0.5,0.2-0.7,0.4l-2.1,1.7c-0.4,0.3-0.9,0.3-1.3-0.1l-0.5-0.6c-0.1-0.2-0.4-0.3-0.6-0.3l-8.8,0
						c-0.5,0-0.8-0.4-0.8-0.9v-16.1c0-0.8-0.3-1.5-0.9-2.1l-36.3-36.6c-0.7-0.7-1-1.6-1-2.5V141c0-0.5,0.4-0.9,0.9-0.9L7.6,140
						l37-36.5c0.7-0.7,1.6-1.1,2.6-1.1h35.2c0.8,0,1.6,0.3,2.1,0.9l36.6,36.4C121.9,140.5,122.3,141.5,122.3,142.6z"/>
					<path class="st10" d="M239.4,56c0-3.2,0-6.5,0-9.7c0-5.8,0-11.7,0-17.5v-1.1c0-0.8-0.6-1.4-1.4-1.4H86.9c-1,0-1.9,0.4-2.7,1.1
						L9.6,101.6c-0.6,0.6-1.3,0.9-2.2,0.9h-73c-0.9,0-1.7,0.3-2.3,0.9l-39.3,38.3V216c0,0.7,0.6,1.3,1.3,1.3l35.3-0.4
						c0.9,0,1.6,0.7,1.6,1.6V253c0,1.3-1,2.3-2.3,2.3h-34.7c-0.7,0-1.3,0.6-1.3,1.2v35.8c0,0.8,0.6,1.4,1.3,1.4h11.5
						c0.1,0,0.2,0.1,0.2,0.2c-0.2,15.5,0.5,21.3-12,20.1c-0.7-0.1-1.3,0.5-1.2,1.2c0.1,1.6-0.2,11.6-0.2,15.7c0,0.6-0.5,1-1,1
						l-13.1-0.2c-0.8,0-1.4,0.6-1.4,1.4v14.8c0,0.8-0.5,1.8-1.1,2.2c-2.9,1.9-4.7,1.4-7.3,4.5c-0.1,0.1-0.6,5.1-0.6,5.3
						c0,0.2,4.1,2.3,4.2,2.5c1.4,3-0.7,4.5,0.2,7.3c0.1,0.5,0.6,0.8,1,0.8h17.4c0.7,0,1.3,0.6,1.4,1.3l0.2,20.4
						c0,0.5-0.4,0.8-0.8,0.8c-3.2,0-9.9,0.3-10,0.4c-4.6,5.2-5.3,18.2-1.7,28c0.3,0.9,1.1,1.5,2,1.5l9,0.1c1.1,0,2,0.9,1.9,2
						l-0.2,20.6c0,1.1,0.4,2.2,1.2,3l36.5,35.8c0.7,0.6,1.6,1,2.5,1h35c0.9,0,1.7-0.4,2.4-1l36.4-36c0.7-0.6,1-1.5,1-2.5L7.3,332.5
						c0-0.7-0.6-1.3-1.3-1.3H-4c-0.5,0-1-0.4-1-1l-0.5-8c-0.1-2.5,2.8-3.8,5.7-4h6c0.7,0,1.3-0.6,1.3-1.3l0.2-8.8
						c0-0.7-0.8-0.8-1.5-0.8l-6.4,0c-0.6,0-1.5-0.4-1.6-1c-0.1-1,0.4-1.7,1.8-2c2.3,0,4.6,0,7,0c0.3,0,0.5-0.2,0.5-0.5l0.2-9.5
						c0-0.3,0.3-0.6,0.6-0.6l36.7-0.2c0.3,0,0.5-0.2,0.5-0.5l0.2-9.9c0-0.3,0.3-0.6,0.6-0.6c0,0,22.2,0,22.2,0c2,0.2,3,2.8,3.1,5.6
						l0.1,4.8c0,0.4,0.3,0.6,0.7,0.7l10.9,0.2c0.4,0,0.7-0.3,0.7-0.7l0.2-10.7c0-0.4,0.4-0.8,0.8-0.8l16.2-0.4
						c0.7,0,1.3,0.6,1.3,1.3l0.2,10.4c0,0.4,0.4,0.8,0.8,0.8l18.6,0.2c0.1,0,0.1,0,0.1-0.1v-11.3c0-0.5,0.4-0.9,0.9-0.9
						c2.1-0.1,4.3-0.1,6.4-0.2c0.5,0,1.1,0.3,1.4,0.7c1.3,1.8,1.8,4.2,1.6,7.4v3.5c0,0.2,0.2,0.4,0.4,0.4h27.2
						c0.3,0,0.6-0.3,0.6-0.6l0.2-7.3c0-0.4,0.3-0.7,0.6-0.8c1.1-0.2,6.6-0.1,6.7-0.3c0.5-0.8,0.6-1.7,0.1-2.6
						c-0.2-0.5-0.7-0.7-1.3-0.8l-5.9-0.2c-0.3-0.1-0.6-0.4-0.6-0.8l-0.2-23.8c0-0.3-0.3-0.6-0.6-0.6h-7.6c-0.4,0-1.3-0.9-1.4-1.3
						c-1-2.5-0.3-22.3,0.2-22.6c1-0.4,9.8-0.1,9.8-0.6l-0.2-65.9c0-0.7,0.5-1.3,1.2-1.4l6.3-0.4c1.2-0.1,1.8-0.9,2.7-1.7
						c1.2-1.1,2-2,2.3-3.3c5.3-26.9,37.3-74.1,66.1-93.2C239.4,65.6,239.4,56.3,239.4,56z"/>
				</g>
				<path class="st10" d="M94.1,40.2v50.6c0,0.6,0.3,1.1,0.7,1.4l26,19c0.9,0.6,2,0.7,3,0.2l92-46.9c0.7-0.4,1.1-1.1,1.1-1.9V40
					c0-0.9-0.7-1.7-1.7-1.7H96C95,38.3,94.1,39.1,94.1,40.2z"/>
				<line class="st9" x1="270.3" y1="138" x2="242.9" y2="110.7"/>
				<line class="st9" x1="430.3" y1="136.3" x2="458.6" y2="108"/>
				<polyline class="st11" points="83.9,539.8 83.9,523.7 83.9,483.9 				"/>
				<polyline class="st11" points="83.9,523.7 160.6,523.7 160.6,480.8 				"/>
				<polyline class="st11" points="324.4,407 324.4,457.8 145.5,457.8 145.5,379.5 229.8,387.9 				"/>
				<polyline class="st11" points="20,294.6 20,328 7.3,340.4 				"/>
				<polyline class="st11" points="36.1,293.7 36.1,315.2 200.8,315.2 				"/>
				<path class="st11" d="M145.5,439.8l81.9-6.9l-1.3-24.4l3.9-6.1v-25.3L84.5,360.8c-0.3,0-0.5-0.3-0.5-0.6v-27.1l120.6-0.8"/>
				<line class="st12" x1="160.6" y1="381" x2="160.6" y2="438.5"/>
				<line class="st12" x1="173.6" y1="382.3" x2="173.6" y2="437.3"/>
				<line class="st12" x1="185" y1="383.4" x2="185" y2="436.5"/>
				<line class="st12" x1="198.5" y1="384.8" x2="198.5" y2="435.3"/>
				<line class="st12" x1="226.1" y1="408.5" x2="160.6" y2="408.5"/>
				<polyline class="st11" points="44.5,600.9 324.4,600.9 324.4,466.8 145.5,466.8 145.5,481.3 231,478.4 230.7,485.3 152.3,562 
					152.3,539.8 54.8,539.8 54.8,485.3 134.3,481.6 134.3,378.4 54.6,370.3 				"/>
				<path class="st11" d="M7.3,379l39.4-46.7h21.6v26.3c0,0.2-0.2,0.4-0.4,0.4l-12.6-1c-0.5,0-0.9,0.3-0.9,0.8v87.9l79.9-6"/>
				<line class="st12" x1="122.3" y1="377.1" x2="122.3" y2="441.4"/>
				<path class="st11" d="M54.9,480.8l-0.5-28.1c0-0.5,0.3-0.8,0.8-0.9L128,447c0.4,0,0.8,0.3,0.8,0.7l1.2,29c0,0.4-0.3,0.8-0.7,0.8
					l-73.8,3.9C55.2,481.4,54.9,481.1,54.9,480.8z"/>
				<line class="st12" x1="44.5" y1="658.2" x2="324.4" y2="658.2"/>
				<line class="st12" x1="324.4" y1="713" x2="324.4" y2="658.2"/>
				<polyline class="st11" points="-108,423.5 -96,415.5 -55.3,415.5 -55.3,204.8 -62.6,197.9 				"/>
				<line class="st12" x1="-68.9" y1="217.3" x2="-55.3" y2="217.3"/>
				<line class="st12" x1="-48.3" y1="217.3" x2="-30.7" y2="217.3"/>
				<line class="st12" x1="-48.3" y1="207.1" x2="-48.3" y2="199.6"/>
				<line class="st12" x1="-48.3" y1="213.3" x2="-48.3" y2="223.3"/>
				<polyline class="st11" points="-48.3,230.1 -48.3,267.7 27.2,267.7 27.2,251.1 				"/>
				<line class="st12" x1="7.1" y1="254.7" x2="7.1" y2="267.7"/>
				<path class="st11" d="M27.2,243.5v-52c0-0.4-0.3-0.7-0.7-0.7h-83.3"/>
				<polyline class="st11" points="37,243.5 37,190.8 129.1,190.8 129.1,234.7 				"/>
				<line class="st12" x1="121.8" y1="216.9" x2="129.1" y2="216.9"/>
				<polyline class="st11" points="129.1,244.2 129.1,255.2 110.4,259.4 				"/>
				<polyline class="st11" points="101.1,261.7 73.9,267.7 66.2,267.7 				"/>
				<line class="st12" x1="83.7" y1="255.2" x2="83.6" y2="265.5"/>
				<polyline class="st11" points="57.5,267.7 37,267.7 37,251.1 				"/>
				<line class="st12" x1="45.9" y1="254.5" x2="45.9" y2="267.7"/>
				<polyline class="st11" points="-23,140.1 15.7,169.5 -68.9,169.5 				"/>
				<polyline class="st11" points="7.6,140 46.9,170.8 129.1,170.8 129.1,158.2 				"/>
				<polyline class="st11" points="129.1,151.2 129.1,140.1 122.3,140.1 				"/>
				<polyline class="st11" points="23.3,124.6 33.7,140.1 64,140.1 84,156.4 84,216.9 57.5,217.1 45.1,238 				"/>
				<polyline class="st11" points="57.5,275 -48.3,275 -48.3,415.5 7.3,415.5 				"/>
				<line class="st12" x1="-55.3" y1="370.3" x2="-107.9" y2="370.3"/>
				<line class="st12" x1="-55.3" y1="332.3" x2="-108.6" y2="332.3"/>
				<line class="st12" x1="-48.3" y1="332.3" x2="7.3" y2="332.3"/>
				<line class="st12" x1="-94.1" y1="293.8" x2="-55.3" y2="293.8"/>
				<line class="st12" x1="-48.3" y1="293.7" x2="8.3" y2="293.7"/>
				<line class="st12" x1="45.9" y1="275" x2="45.9" y2="283.2"/>
				<polyline class="st11" points="65.1,275 73.7,275 84,272.6 138.5,260.4 				"/>
				<line class="st12" x1="84.3" y1="282.4" x2="84.3" y2="272.4"/>
				<polyline class="st11" points="-69.9,190.8 -79.1,182.1 -79.1,178.9 -91.8,178.9 				"/>
				<line class="st12" x1="-99" y1="178.9" x2="-107.1" y2="178.9"/>
				<polyline class="st11" points="-91.8,169.5 -78.4,169.5 -78.4,160.4 				"/>
				<line class="st12" x1="-99" y1="169.5" x2="-107.1" y2="169.5"/>
				<polyline class="st11" points="-107.1,141.7 -78.4,132.4 -78.4,151.1 				"/>
				<line class="st12" x1="-60.5" y1="132.4" x2="-78.4" y2="132.4"/>
				<line class="st12" x1="-49.3" y1="132.4" x2="-19.9" y2="132.4"/>
				<line class="st12" x1="-31.2" y1="123.1" x2="-31.2" y2="132.4"/>
				<line class="st12" x1="-31.2" y1="113" x2="-31.2" y2="102.4"/>
				<path class="st11" d="M-9.3,132.4H6.6c0.4,0,0.7-0.1,1-0.4l16.3-16.5"/>
				<line class="st12" x1="7.5" y1="102.4" x2="7.5" y2="132"/>
				<polyline class="st11" points="31.5,107.7 45.7,93.1 60.1,93.1 				"/>
				<line class="st12" x1="45.7" y1="65.6" x2="45.7" y2="93.1"/>
				<polyline class="st11" points="69.4,93.1 84,93.1 84,27.4 				"/>
				<line class="st12" x1="217" y1="64.2" x2="222.4" y2="64.2"/>
				<line class="st12" x1="229.8" y1="64.2" x2="239.4" y2="64.2"/>
				<polyline class="st11" points="140.4,115 140.4,103 176.4,102.4 				"/>
				<line class="st12" x1="187.6" y1="102.4" x2="202.4" y2="102.4"/>
				<polyline class="st11" points="140.4,132 140.4,163.7 140.4,238.6 150.5,238.6 171.1,235.6 170.6,216 200.6,216.3 				"/>
				<line class="st12" x1="161.9" y1="164.1" x2="140.4" y2="164.1"/>
				<polyline class="st11" points="200.8,235.6 190.5,235.6 187.5,250.9 159.9,255.8 				"/>
				<polyline class="st11" points="620.1,539.8 620.1,523.7 620.1,483.9 				"/>
				<polyline class="st11" points="620.1,523.7 543.5,523.7 543.5,480.8 				"/>
				<polyline class="st11" points="379.6,407 379.6,457.8 558.5,457.8 558.5,379.5 474.2,387.9 				"/>
				<polyline class="st11" points="684,294.6 684,328 696.8,340.4 				"/>
				<polyline class="st11" points="668,293.7 668,315.2 503.2,315.2 				"/>
				<path class="st11" d="M558.5,439.8l-81.9-6.9l1.3-24.4l-3.9-6.1v-25.3l145.6-16.3c0.3,0,0.5-0.3,0.5-0.6v-27.1l-120.6-0.8"/>
				<line class="st12" x1="543.5" y1="381" x2="543.5" y2="438.5"/>
				<line class="st12" x1="530.4" y1="382.3" x2="530.4" y2="437.3"/>
				<line class="st12" x1="519.1" y1="383.4" x2="519.1" y2="436.5"/>
				<line class="st12" x1="505.5" y1="384.8" x2="505.5" y2="435.3"/>
				<line class="st12" x1="477.9" y1="408.5" x2="543.5" y2="408.5"/>
				<polyline class="st11" points="659.5,600.9 379.6,600.9 379.6,466.8 558.5,466.8 558.5,481.3 473,478.4 473.3,485.3 551.8,562 
					551.8,539.8 649.3,539.8 649.3,485.3 569.8,481.6 569.8,378.4 649.5,370.3 				"/>
				<path class="st11" d="M696.8,379l-39.4-46.7h-21.6v26.3c0,0.2,0.2,0.4,0.4,0.4l12.6-1c0.5,0,0.9,0.3,0.9,0.8v87.9l-79.9-6"/>
				<line class="st12" x1="581.8" y1="377.1" x2="581.8" y2="441.4"/>
				<path class="st11" d="M649.2,480.8l0.5-28.1c0-0.5-0.3-0.8-0.8-0.9L576,447c-0.4,0-0.8,0.3-0.8,0.7l-1.2,29
					c0,0.4,0.3,0.8,0.7,0.8l73.8,3.9C648.9,481.4,649.2,481.1,649.2,480.8z"/>
				<line class="st12" x1="659.5" y1="658.2" x2="379.6" y2="658.2"/>
				<line class="st12" x1="379.6" y1="713" x2="379.6" y2="658.2"/>
				<polyline class="st11" points="812,423.5 800.1,415.5 759.4,415.5 759.4,204.8 766.7,197.9 				"/>
				<line class="st12" x1="773" y1="217.3" x2="759.4" y2="217.3"/>
				<line class="st12" x1="752.3" y1="217.3" x2="734.8" y2="217.3"/>
				<line class="st12" x1="752.3" y1="207.1" x2="752.3" y2="199.6"/>
				<line class="st12" x1="752.3" y1="213.3" x2="752.3" y2="223.3"/>
				<polyline class="st11" points="752.3,230.1 752.3,267.7 676.9,267.7 676.9,251.1 				"/>
				<line class="st12" x1="696.9" y1="254.7" x2="696.9" y2="267.7"/>
				<path class="st11" d="M676.9,243.5v-52c0-0.4,0.3-0.7,0.7-0.7h83.3"/>
				<polyline class="st11" points="667,243.5 667,190.8 575,190.8 575,234.7 				"/>
				<line class="st12" x1="582.3" y1="216.9" x2="575" y2="216.9"/>
				<polyline class="st11" points="575,244.2 575,255.2 593.6,259.4 				"/>
				<polyline class="st11" points="603,261.7 630.2,267.7 637.9,267.7 				"/>
				<line class="st12" x1="620.4" y1="255.2" x2="620.4" y2="265.5"/>
				<polyline class="st11" points="646.6,267.7 667,267.7 667,251.1 				"/>
				<line class="st12" x1="658.2" y1="254.5" x2="658.2" y2="267.7"/>
				<polyline class="st11" points="727.1,140.1 688.3,169.5 773,169.5 				"/>
				<polyline class="st11" points="575,151.2 575,140.1 581.8,140.1 				"/>
				<polyline class="st11" points="680.8,124.6 670.3,140.1 640,140.1 620,156.4 620,216.9 646.6,217.1 659,238 				"/>
				<polyline class="st11" points="646.6,275 752.3,275 752.3,415.5 696.8,415.5 				"/>
				<line class="st12" x1="759.4" y1="370.3" x2="812" y2="370.3"/>
				<line class="st12" x1="759.4" y1="332.3" x2="812.6" y2="332.3"/>
				<line class="st12" x1="752.3" y1="332.3" x2="696.8" y2="332.3"/>
				<line class="st12" x1="798.1" y1="293.8" x2="759.4" y2="293.8"/>
				<line class="st12" x1="752.3" y1="293.7" x2="695.8" y2="293.7"/>
				<line class="st12" x1="658.2" y1="275" x2="658.2" y2="283.2"/>
				<polyline class="st11" points="638.9,275 630.3,275 620,272.6 565.6,260.4 				"/>
				<line class="st12" x1="619.8" y1="282.4" x2="619.8" y2="272.4"/>
				<polyline class="st11" points="774,190.8 783.1,182.1 783.1,178.9 795.9,178.9 				"/>
				<line class="st12" x1="803.1" y1="178.9" x2="811.2" y2="178.9"/>
				<polyline class="st11" points="795.9,169.5 782.5,169.5 782.5,160.4 				"/>
				<line class="st12" x1="803.1" y1="169.5" x2="811.2" y2="169.5"/>
				<polyline class="st11" points="811.2,141.7 782.5,132.4 782.5,151.1 				"/>
				<line class="st12" x1="764.6" y1="132.4" x2="782.5" y2="132.4"/>
				<line class="st12" x1="753.4" y1="132.4" x2="723.9" y2="132.4"/>
				<line class="st12" x1="735.3" y1="123.1" x2="735.3" y2="132.4"/>
				<line class="st12" x1="735.3" y1="113" x2="735.3" y2="102.4"/>
				<path class="st11" d="M713.4,132.4h-15.9c-0.4,0-0.7-0.1-1-0.4l-16.3-16.5"/>
				<line class="st12" x1="696.6" y1="102.4" x2="696.6" y2="132"/>
				<polyline class="st11" points="672.6,107.7 658.3,93.1 643.9,93.1 				"/>
				<line class="st12" x1="658.3" y1="65.6" x2="658.3" y2="93.1"/>
				<polyline class="st11" points="634.6,93.1 620,93.1 620,27.4 				"/>
				<polyline class="st11" points="563.6,127.2 563.6,163.7 563.6,238.6 553.5,238.6 532.9,235.6 533.5,216 503.5,216.3 				"/>
				<line class="st12" x1="542.2" y1="164.1" x2="563.6" y2="164.1"/>
				<polyline class="st11" points="503.2,235.6 513.5,235.6 516.6,250.9 544.2,255.8 				"/>
				<line class="st12" x1="464.7" y1="36" x2="481.7" y2="36"/>
				<line class="st12" x1="496.5" y1="36" x2="563.6" y2="36"/>
				<polyline class="st11" points="576.8,36 609.2,36 609.2,102.4 621.6,102.4 				"/>
				<line class="st12" x1="563.6" y1="48.3" x2="563.6" y2="117.2"/>
				<line class="st12" x1="575" y1="48.3" x2="575" y2="116.4"/>
				<polyline class="st11" points="575,127.2 575,158.2 575,170.8 657.2,170.8 696.5,140 				"/>
				<polyline class="st11" points="469.8,69.2 512,69.2 512,71.5 				"/>
				<polyline class="st11" points="518.5,71.5 518.5,69.2 551.3,69.2 551.3,71.5 				"/>
				<line class="st12" x1="512" y1="77.8" x2="512" y2="80.7"/>
				<line class="st12" x1="512" y1="89" x2="512" y2="93.1"/>
				<polyline class="st11" points="512,79.4 493.5,79.4 482.8,79.4 482.8,69.2 				"/>
				<polyline class="st11" points="493.5,79.4 493.5,91 512,91 				"/>
				<line class="st12" x1="518.5" y1="91" x2="551.3" y2="91"/>
				<line class="st12" x1="551.3" y1="77.8" x2="551.3" y2="82.3"/>
				<line class="st12" x1="551.3" y1="89" x2="551.3" y2="93.1"/>
				<polyline class="st11" points="551.3,100.4 551.3,102.4 551.3,104.7 				"/>
				<path class="st11" d="M502.8,102.4"/>
				<polyline class="st11" points="502.8,91 502.8,102.4 551.3,102.4 				"/>
				<polyline class="st11" points="518.5,77.8 518.5,79.4 518.5,80.7 				"/>
				<line class="st12" x1="551.3" y1="80" x2="518.5" y2="80"/>
				<line class="st12" x1="518.5" y1="89" x2="518.5" y2="93.1"/>
				<line class="st12" x1="518.5" y1="100.4" x2="518.5" y2="104.7"/>
				<line class="st12" x1="512" y1="100.4" x2="512" y2="102.4"/>
				<polyline class="st11" points="518.5,109.5 518.5,127.2 522,127.2 				"/>
				<line class="st12" x1="528.4" y1="127.2" x2="538" y2="127.2"/>
				<polyline class="st11" points="546.7,127.2 551.3,127.2 551.3,110.6 				"/>
				<polyline class="st11" points="518.5,112.6 531.3,112.6 551.3,112.6 				"/>
				<line class="st12" x1="531.3" y1="127.2" x2="531.3" y2="112.6"/>
				<path class="st13" d="M168.8,60.9c1.3-0.8,3.5-2.3,4.7-5c1.2-2.7,0.3-4,1.5-6.2c1.4-2.6,4.1-3.7,5-4c7.7-3,16.3,4.9,17.3,5.8
					c2.1,2,5.1,4.8,4.8,8.6c-0.2,2.7-2,4.7-2.9,5.8c-0.8,0.9-2.5,2.8-5.3,3.6c-1.8,0.5-2.9,0.2-4.3,0.1c-2.1-0.1-4.1,0.5-12.9,6.6
					c-5.1,3.5-5.4,4-8.7,6.1c-6.3,3.9-8.3,4.1-9.3,4.2c-3,0.1-7.4-1.1-9.1-4.6c-1.6-3.2-0.1-6.8,1-9.4c0.5-1.3,1.3-3.1,3-4.8
					c1.6-1.6,3.5-2.3,7.1-3.7C165.8,61.9,166.5,62.4,168.8,60.9z"/>
				<path class="st11" d="M322.9,404.3v-72.1l-1.3-5.7V208.4c0-0.7-0.6-1.3-1.3-1.3h-39.9"/>
				<line class="st14" x1="313.8" y1="36.2" x2="313.8" y2="69.2"/>
				<line class="st14" x1="313.8" y1="29.8" x2="313.8" y2="25.4"/>
				<line class="st14" x1="313.8" y1="64.2" x2="292.8" y2="64.2"/>
				<line class="st14" x1="284.9" y1="64.2" x2="275.2" y2="64.2"/>
				<g>
					<polygon class="st13" points="351.9,40.4 337.7,18.5 324.4,31.9 324.4,58.2 351.9,58.2 					"/>
					<line class="st14" x1="351.9" y1="18.5" x2="337.7" y2="18.5"/>
					<line class="st14" x1="351.9" y1="40.4" x2="324.4" y2="31.9"/>
				</g>
				<polyline class="st13" points="277.5,129 343.2,129 351.9,129 				"/>
				<path class="st13" d="M343.5,129c0-14.3,0-28.6,0-42.8c0-3.8,0.4-8-0.1-11.8c-27.5-0.5-64.9,15.9-65.8,19.1"/>
				<path class="st13" d="M277.3,187.2h44.5c0.6,0,1-0.5,1-1.1v-44c0-0.7-0.6-1.3-1.3-1.3h-53.8"/>
				<line class="st14" x1="302.7" y1="81.8" x2="302.7" y2="102.2"/>
				<line class="st14" x1="277.5" y1="102.4" x2="270.6" y2="97.2"/>
				<line class="st14" x1="274.1" y1="95.5" x2="267.8" y2="99.3"/>
				<path class="st13" d="M263.3,102.4c-46.3,30.3-65,97.1-55.4,141.1l32.7-2.1"/>
				<line class="st14" x1="227.2" y1="235.6" x2="227.2" y2="217.5"/>
				<path class="st13" d="M239.4,309.8c-14.9-14.7-28.5-48.1-28.4-52.1"/>
				<polyline class="st13" points="267.9,293.7 245.3,317.1 252.3,324.6 276,302 				"/>
				<polyline class="st13" points="250.8,173 236.9,183.6 236.9,185.3 				"/>
				<polyline class="st13" points="236.9,190.8 236.9,193.2 277.5,193.2 				"/>
				<path class="st13" d="M260.6,331c14.5,11,28.8,18.1,43,22.5c0.1,0,0.1,0.1,0.2,0.1"/>
				<path class="st13" d="M313.5,324.6c0,10.7,0,32.1,0,32.1c4.7,2.7,38.2,5.9,38.4,5"/>
				<polyline class="st13" points="426.4,129.2 360.7,129.2 352,129.2 				"/>
				<line class="st14" x1="401.2" y1="84.1" x2="401.2" y2="102.3"/>
				<line class="st14" x1="476.8" y1="235.8" x2="476.8" y2="217.6"/>
				<path class="st13" d="M430.6,299.6l1.8,34.6c-14.5,11-37.3,20.3-37.4,20.4v-32.1"/>
				<path class="st13" d="M390.4,324.7c0,10.7,0,32.1,0,32.1c-4.7,2.7-38.2,5.9-38.4,5"/>
				<path class="st11" d="M380.8,404.1v-72.1l1.3-5.7V208.3c0-0.7,0.6-1.3,1.3-1.3h39.9"/>
				<path class="st13" d="M435.9,140.7h-53.8c-0.7,0-1.3,0.6-1.3,1.3v44c0,0.6,0.5,1.1,1,1.1h44.5h6.1"/>
				<path class="st13" d="M439.8,187.1H456v-22.9l-22.3-31.2c0-5.9,0-11.9,0-17.8c0-3.6,0-7.2,0-10.7c0-2.7-1-2.3-3-4.4
					c-8.8-9.5-56.2-28-70.2-25.4c-0.5,3.8-0.1,7.9-0.1,11.8c0,14.3,0,28.6,0,42.9"/>
				<line class="st14" x1="417.2" y1="310.6" x2="417.2" y2="344.1"/>
				<path class="st13" d="M438.9,341.6v-24.2H451c15.7-10.1,41.9-61.6,40-81.6"/>
				<polygon class="st13" points="467.1,242.2 485.6,242.2 480.5,258.2 463.6,253.4 				"/>
				<g>
					<polygon class="st13" points="352,40.4 366.2,18.4 379.6,31.8 379.6,58.2 352,58.2 					"/>
					<line class="st14" x1="352" y1="18.4" x2="366.2" y2="18.4"/>
					<line class="st14" x1="352" y1="40.4" x2="379.6" y2="31.8"/>
				</g>
				<polyline class="st13" points="439.4,91.9 439.5,127.2 449.3,138.2 				"/>
				<polyline class="st13" points="456,147.5 467.1,162.2 489,151.2 				"/>
				<line class="st14" x1="467.1" y1="171.3" x2="467.1" y2="162.2"/>
				<path class="st13" d="M467.1,179.7"/>
				<polyline class="st13" points="467.1,194 467.1,187.2 467.1,179.7 				"/>
				<line class="st14" x1="500.6" y1="187.2" x2="467.1" y2="187.2"/>
				<polyline class="st13" points="467.1,201.3 467.1,205.6 452.2,205.6 				"/>
				<line class="st14" x1="445.4" y1="205.6" x2="427" y2="206"/>
				<line class="st14" x1="456" y1="206" x2="456" y2="217.1"/>
				<line class="st14" x1="390.2" y1="36.4" x2="390.2" y2="69.4"/>
				<line class="st14" x1="390.2" y1="30" x2="390.2" y2="25.6"/>
				<line class="st14" x1="390.2" y1="64.4" x2="411.2" y2="64.4"/>
				<line class="st14" x1="419.1" y1="64.4" x2="428.8" y2="64.4"/>
				<line class="st12" x1="490.2" y1="246.3" x2="501.3" y2="247.3"/>
				<line class="st12" x1="488.5" y1="253.1" x2="499.3" y2="255.8"/>
				<line class="st12" x1="486.1" y1="260.4" x2="496.8" y2="264"/>
				<line class="st12" x1="483.1" y1="268.4" x2="493.5" y2="273.3"/>
				<line class="st12" x1="480" y1="275.5" x2="489.7" y2="281.9"/>
				<line class="st12" x1="474.9" y1="285.6" x2="484.8" y2="291.3"/>
				<line class="st12" x1="471.2" y1="293.7" x2="479.2" y2="299.6"/>
				<line class="st12" x1="466.4" y1="300" x2="474" y2="307.3"/>
				<line class="st12" x1="459.1" y1="309.8" x2="466.8" y2="316.7"/>
				<g>
					<g>
						<rect x="469.8" y="40.4" class="st13" width="3.1" height="23.1"/>
						<rect x="476.5" y="40.4" class="st13" width="3.1" height="23.1"/>
						<rect x="483.7" y="40.4" class="st13" width="3.1" height="23.1"/>
						<rect x="490.2" y="40.4" class="st13" width="3.1" height="23.1"/>
					</g>
					<rect x="497" y="40.4" class="st13" width="3.1" height="23.1"/>
					<rect x="504" y="40.4" class="st13" width="3.1" height="23.1"/>
				</g>
				<g>
					<g>
						<rect x="512.3" y="40.4" class="st13" width="3.1" height="23.1"/>
						<rect x="519" y="40.4" class="st13" width="3.1" height="23.1"/>
						<rect x="526.2" y="40.4" class="st13" width="3.1" height="23.1"/>
						<rect x="532.7" y="40.4" class="st13" width="3.1" height="23.1"/>
					</g>
					<rect x="539.5" y="40.4" class="st13" width="3.1" height="23.1"/>
					<rect x="546.5" y="40.4" class="st13" width="3.1" height="23.1"/>
				</g>
				<g>
					<rect x="534.8" y="136" class="st13" width="10.6" height="1.4"/>
					<rect x="534.8" y="140.2" class="st13" width="10.6" height="1.4"/>
					<rect x="534.8" y="145" class="st13" width="10.6" height="1.4"/>
					<rect x="534.8" y="149.9" class="st13" width="10.6" height="1.4"/>
					<rect x="534.8" y="154" class="st13" width="10.6" height="1.4"/>
					<rect x="534.8" y="159.1" class="st13" width="10.6" height="1.4"/>
				</g>
				<g>
					<rect x="550.8" y="136" class="st13" width="10.6" height="1.4"/>
					<rect x="550.8" y="140.2" class="st13" width="10.6" height="1.4"/>
					<rect x="550.8" y="145" class="st13" width="10.6" height="1.4"/>
					<rect x="550.8" y="149.9" class="st13" width="10.6" height="1.4"/>
					<rect x="550.8" y="154" class="st13" width="10.6" height="1.4"/>
					<rect x="550.8" y="159.1" class="st13" width="10.6" height="1.4"/>
				</g>
				<g>
					<rect x="220.1" y="31.9" class="st13" width="10.6" height="2.1"/>
					<rect x="220.1" y="36.2" class="st13" width="10.6" height="2.1"/>
					<rect x="220.1" y="41.2" class="st13" width="10.6" height="2.1"/>
					<rect x="220.1" y="45.5" class="st13" width="10.6" height="2.1"/>
					<rect x="220.1" y="50.2" class="st13" width="10.6" height="2.1"/>
					<rect x="220.1" y="54.9" class="st13" width="10.6" height="2.1"/>
				</g>
				<rect x="217.1" y="179.1" class="st13" width="3.2" height="33.2"/>
				<rect x="222.9" y="179.1" class="st13" width="3.2" height="33.2"/>
				<rect x="229.9" y="196.6" class="st13" width="3.2" height="16.6"/>
				<rect x="236.5" y="196.6" class="st13" width="3.2" height="16.6"/>
				<rect x="243.5" y="196.6" class="st13" width="3.2" height="16.6"/>
				<rect x="250.1" y="196.6" class="st13" width="3.2" height="16.6"/>
				<rect x="256.8" y="196.6" class="st13" width="3.2" height="16.6"/>
				<rect x="264" y="196.6" class="st13" width="3.2" height="16.6"/>
				
					<rect x="227" y="162.5" transform="matrix(0.3466 -0.938 0.938 0.3466 -12.9159 327.42)" class="st15" width="3.2" height="20.9"/>
				
					<rect x="228.5" y="155.9" transform="matrix(0.4096 -0.9123 0.9123 0.4096 -15.8631 308.1276)" class="st16" width="3.2" height="20.9"/>
				
					<rect x="231.1" y="150" transform="matrix(0.4709 -0.8822 0.8822 0.4709 -18.3906 290.223)" class="st17" width="3.2" height="20.9"/>
				
					<rect x="234.9" y="143.4" transform="matrix(0.5258 -0.8506 0.8506 0.5258 -18.6791 274.1223)" class="st15" width="3.2" height="20.9"/>
				
					<rect x="239.6" y="137.8" transform="matrix(0.5679 -0.8231 0.8231 0.5679 -17.8121 262.602)" class="st18" width="3.2" height="20.9"/>
				
					<rect x="242.7" y="132" transform="matrix(0.6137 -0.7895 0.7895 0.6137 -18.0803 247.946)" class="st19" width="3.2" height="20.9"/>
				
					<rect x="246.8" y="127.3" transform="matrix(0.6788 -0.7343 0.7343 0.6788 -21.3932 226.6684)" class="st20" width="3.2" height="20.9"/>
				
					<rect x="251.5" y="121.4" transform="matrix(0.6788 -0.7343 0.7343 0.6788 -15.5241 228.252)" class="st20" width="3.2" height="20.9"/>
				
					<rect x="444" y="291.9" transform="matrix(0.7071 -0.7071 0.7071 0.7071 -83.1164 403.5539)" class="st15" width="3.2" height="20.5"/>
				
					<rect x="449.4" y="286.4" transform="matrix(0.6682 -0.744 0.744 0.6682 -71.0783 433.947)" class="st17" width="3.2" height="20.5"/>
				
					<rect x="453.2" y="281.5" transform="matrix(0.6131 -0.79 0.79 0.6131 -54.4811 472.121)" class="st18" width="3.2" height="20.5"/>
				
					<rect x="456.5" y="275.9" transform="matrix(0.5513 -0.8343 0.8343 0.5513 -33.1201 510.6147)" class="st15" width="3.2" height="20.5"/>
				
					<rect x="460.9" y="269.7" transform="matrix(0.4974 -0.8675 0.8675 0.4974 -10.3948 541.8818)" class="st20" width="3.2" height="20.5"/>
				<rect x="464.8" y="263.4" transform="matrix(0.5 -0.866 0.866 0.5 -3.7901 540.7385)" class="st20" width="3.2" height="20.5"/>
				
					<rect x="467.3" y="257.5" transform="matrix(0.4285 -0.9035 0.9035 0.4285 26.1039 576.6563)" class="st21" width="3.2" height="20.5"/>
				
					<rect x="469.2" y="251.1" transform="matrix(0.3536 -0.9354 0.9354 0.3536 59.8433 609.3404)" class="st18" width="3.2" height="20.5"/>
				<circle class="st13" cx="104.8" cy="50.1" r="4.6"/>
				<circle class="st13" cx="116.5" cy="50.1" r="4.6"/>
				<circle class="st13" cx="104.8" cy="63.9" r="4.6"/>
				<circle class="st13" cx="119.2" cy="61.6" r="4.6"/>
				<circle class="st13" cx="137.2" cy="52.3" r="4.6"/>
				<circle class="st13" cx="149.6" cy="45" r="4.6"/>
				<circle class="st13" cx="155.6" cy="56" r="4.6"/>
				<circle class="st13" cx="168.4" cy="45.5" r="4.6"/>
				<circle class="st13" cx="133.2" cy="63.9" r="4.6"/>
				<circle class="st13" cx="119.2" cy="73.9" r="4.6"/>
				<circle class="st13" cx="135" cy="79.4" r="4.6"/>
				<circle class="st13" cx="121.1" cy="89.4" r="4.6"/>
				<circle class="st13" cx="206.1" cy="49.3" r="4.6"/>
				<circle class="st13" cx="106.5" cy="88.6" r="4.6"/>
				<circle class="st13" cx="148.3" cy="90.3" r="4.6"/>
				<circle class="st13" cx="133.2" cy="97.7" r="4.6"/>
				<g>
					<circle class="st13" cx="33.6" cy="150.8" r="4.6"/>
					<circle class="st13" cx="45.8" cy="162.2" r="4.6"/>
					<circle class="st13" cx="62.2" cy="162.2" r="4.6"/>
					<circle class="st13" cx="75.6" cy="163.1" r="4.6"/>
					<circle class="st13" cx="17.5" cy="202" r="4.6"/>
					<circle class="st13" cx="17.5" cy="216.9" r="4.6"/>
					<circle class="st13" cx="-1.6" cy="201.3" r="4.6"/>
					<circle class="st13" cx="-20.4" cy="202" r="4.6"/>
					<circle class="st13" cx="45.7" cy="201.3" r="4.6"/>
					<circle class="st13" cx="62.2" cy="200.2" r="4.6"/>
					<circle class="st13" cx="75.2" cy="199.6" r="4.6"/>
					<circle class="st13" cx="45.5" cy="217.1" r="4.6"/>
					<circle class="st13" cx="47.3" cy="306.6" r="4.6"/>
					<circle class="st13" cx="64.3" cy="308.1" r="4.6"/>
					<circle class="st13" cx="80.9" cy="307.3" r="4.6"/>
					<circle class="st13" cx="101.1" cy="307.3" r="4.6"/>
					<circle class="st13" cx="119.2" cy="306.6" r="4.6"/>
					<circle class="st13" cx="134.3" cy="307.3" r="4.6"/>
					<circle class="st13" cx="153.1" cy="307.3" r="4.6"/>
					<circle class="st13" cx="167.7" cy="306.6" r="4.6"/>
					<circle class="st13" cx="183.6" cy="305.2" r="4.6"/>
					<circle class="st13" cx="199.2" cy="342.7" r="4.6"/>
					<circle class="st13" cx="182.3" cy="344.1" r="4.6"/>
					<circle class="st13" cx="161.6" cy="344.7" r="4.6"/>
					<circle class="st13" cx="140.1" cy="344.7" r="4.6"/>
					<circle class="st13" cx="120.7" cy="344.7" r="4.6"/>
					<circle class="st13" cx="101.5" cy="344.1" r="4.6"/>
					<circle class="st13" cx="55.9" cy="341.4" r="4.6"/>
					<circle class="st13" cx="32.5" cy="362.2" r="4.6"/>
					<circle class="st13" cx="19" cy="380.2" r="4.6"/>
					<circle class="st13" cx="275.6" cy="408.5" r="6.4"/>
					<circle class="st13" cx="307.1" cy="408.5" r="6.4"/>
					<circle class="st13" cx="307.1" cy="446.8" r="6.4"/>
					<circle class="st13" cx="307.1" cy="485.3" r="6.4"/>
					<circle class="st13" cx="307.1" cy="523.7" r="6.4"/>
					<circle class="st13" cx="306.4" cy="561.4" r="6.4"/>
					<circle class="st13" cx="306.9" cy="676.9" r="6.4"/>
				</g>
				<g>
					<circle class="st13" cx="670.5" cy="150.8" r="4.6"/>
					<circle class="st13" cx="658.2" cy="162.2" r="4.6"/>
					<circle class="st13" cx="641.8" cy="162.2" r="4.6"/>
					<circle class="st13" cx="628.4" cy="163.1" r="4.6"/>
					<circle class="st13" cx="686.5" cy="202" r="4.6"/>
					<circle class="st13" cx="686.5" cy="216.9" r="4.6"/>
					<circle class="st13" cx="705.6" cy="201.3" r="4.6"/>
					<circle class="st13" cx="724.5" cy="202" r="4.6"/>
					<circle class="st13" cx="658.3" cy="201.3" r="4.6"/>
					<circle class="st13" cx="641.8" cy="200.2" r="4.6"/>
					<circle class="st13" cx="628.8" cy="199.6" r="4.6"/>
					<circle class="st13" cx="658.5" cy="217.1" r="4.6"/>
					<circle class="st13" cx="656.8" cy="306.6" r="4.6"/>
					<circle class="st13" cx="639.7" cy="308.1" r="4.6"/>
					<circle class="st13" cx="623.1" cy="307.3" r="4.6"/>
					<circle class="st13" cx="603" cy="307.3" r="4.6"/>
					<circle class="st13" cx="584.8" cy="306.6" r="4.6"/>
					<circle class="st13" cx="569.8" cy="307.3" r="4.6"/>
					<circle class="st13" cx="550.9" cy="307.3" r="4.6"/>
					<circle class="st13" cx="536.3" cy="306.6" r="4.6"/>
					<circle class="st13" cx="520.5" cy="305.2" r="4.6"/>
					<circle class="st13" cx="504.9" cy="342.7" r="4.6"/>
					<circle class="st13" cx="521.8" cy="344.1" r="4.6"/>
					<circle class="st13" cx="542.4" cy="344.7" r="4.6"/>
					<circle class="st13" cx="564" cy="344.7" r="4.6"/>
					<circle class="st13" cx="583.4" cy="344.7" r="4.6"/>
					<circle class="st13" cx="602.6" cy="344.1" r="4.6"/>
					<circle class="st13" cx="648.1" cy="341.4" r="4.6"/>
					<circle class="st13" cx="671.6" cy="362.2" r="4.6"/>
					<circle class="st13" cx="685.1" cy="380.2" r="4.6"/>
					<circle class="st13" cx="428.5" cy="408.5" r="6.4"/>
					<circle class="st13" cx="396.9" cy="408.5" r="6.4"/>
					<circle class="st13" cx="396.9" cy="446.8" r="6.4"/>
					<circle class="st13" cx="396.9" cy="485.3" r="6.4"/>
					<circle class="st13" cx="396.9" cy="523.7" r="6.4"/>
					<circle class="st13" cx="397.6" cy="561.4" r="6.4"/>
					<circle class="st13" cx="397.1" cy="676.9" r="6.4"/>
				</g>
				<g>
					<circle class="st13" cx="313.5" cy="154.9" r="6.8"/>
					<circle class="st13" cx="305" cy="179.1" r="6.8"/>
					<circle class="st13" cx="285.1" cy="178.5" r="6.8"/>
					<circle class="st13" cx="313.8" cy="217.5" r="6.8"/>
					<circle class="st13" cx="313.8" cy="239" r="6.8"/>
					
						<ellipse transform="matrix(0.3827 -0.9239 0.9239 0.3827 -42.5799 447.7948)" class="st16" cx="313.8" cy="255.8" rx="6.8" ry="6.8"/>
					<circle class="st13" cx="313.8" cy="274.4" r="6.8"/>
					<circle class="st13" cx="313.5" cy="293.5" r="6.8"/>
					<circle class="st13" cx="313.5" cy="311.6" r="6.8"/>
					<circle class="st13" cx="290.3" cy="232.2" r="6.8"/>
					<circle class="st13" cx="261" cy="242.4" r="6.8"/>
					
						<ellipse transform="matrix(0.3827 -0.9239 0.9239 0.3827 -56.7532 426.5805)" class="st16" cx="290.8" cy="255.8" rx="6.8" ry="6.8"/>
					<circle class="st13" cx="275.2" cy="273.8" r="6.8"/>
				</g>
				<g>
					<circle class="st13" cx="390.6" cy="154.9" r="6.8"/>
					<circle class="st13" cx="399.1" cy="179.1" r="6.8"/>
					<circle class="st13" cx="419" cy="178.5" r="6.8"/>
					<circle class="st13" cx="390.3" cy="217.5" r="6.8"/>
					<circle class="st13" cx="390.3" cy="239" r="6.8"/>
					<circle class="st13" cx="390.3" cy="255.8" r="6.8"/>
					<circle class="st13" cx="390.3" cy="274.4" r="6.8"/>
					<circle class="st13" cx="390.5" cy="293.5" r="6.8"/>
					<circle class="st13" cx="390.5" cy="311.6" r="6.8"/>
					<circle class="st13" cx="413.8" cy="232.2" r="6.8"/>
					<circle class="st13" cx="443" cy="242.4" r="6.8"/>
					<circle class="st13" cx="413.2" cy="255.8" r="6.8"/>
					<circle class="st13" cx="428.8" cy="273.8" r="6.8"/>
				</g>
				<g>
					<circle class="st13" cx="658.3" cy="129.4" r="7.5"/>
					<circle class="st13" cx="620" cy="130.6" r="7.5"/>
					<circle class="st13" cx="598.2" cy="149.9" r="7.5"/>
					<circle class="st13" cx="598.2" cy="178.9" r="7.5"/>
					<circle class="st13" cx="598.2" cy="207.1" r="7.5"/>
					<circle class="st13" cx="620" cy="232.4" r="7.5"/>
				</g>
				<g>
					<circle class="st13" cx="45.7" cy="129.4" r="7.5"/>
					<circle class="st13" cx="84" cy="130.6" r="7.5"/>
					<circle class="st13" cx="105.8" cy="149.9" r="7.5"/>
					<circle class="st13" cx="105.8" cy="178.9" r="7.5"/>
					<circle class="st13" cx="105.8" cy="207.1" r="7.5"/>
					<circle class="st13" cx="84" cy="232.4" r="7.5"/>
				</g>
			</g>
		</g>
	</g>
	<circle class="st3" cx="72" cy="470" r="14"/>
	<circle class="st4" cx="114.5" cy="679.5" r="51"/>
	<circle class="st4" cx="66.5" cy="543.5" r="30.5"/>
	<circle class="st4" cx="44.5" cy="617.5" r="9.5"/>
	<circle class="st4" cx="16" cy="382" r="16"/>
	<circle class="st4" cx="79" cy="602" r="14"/>
	<circle class="st4" cx="65.5" cy="455.5" r="13.5"/>
	<circle class="st4" cx="117.5" cy="500.5" r="11.5"/>
	<circle class="st4" cx="294.5" cy="499.5" r="14.5"/>
	<circle class="st4" cx="252.5" cy="610.5" r="12.5"/>
	<circle class="st4" cx="298" cy="653" r="45"/>
	<circle class="st4" cx="659" cy="436" r="52"/>
	<circle class="st4" cx="685" cy="363" r="14"/>
	<circle class="st4" cx="638.5" cy="662.5" r="56.5"/>
	<circle class="st4" cx="693.5" cy="553.5" r="13.5"/>
	<circle class="st3" cx="620.5" cy="498.5" r="13.5"/>
	<circle class="st3" cx="136.5" cy="610.5" r="12.5"/>
	<circle class="st3" cx="277.5" cy="730.5" r="12.5"/>
	<circle class="st3" cx="489.5" cy="691.5" r="15.5"/>
	<circle class="st2" cx="176.5" cy="653.5" r="16.5"/>
	<circle class="st2" cx="35" cy="527" r="19"/>
	<circle class="st2" cx="435.5" cy="586.5" r="11.5"/>
	<circle class="st2" cx="555.5" cy="695.5" r="15.5"/>
</g>
<g id="bubbles">
</g>
</svg>
